HIERARCHY
ROOT hip
{
	OFFSET 0.000000 0.000000 0.000000 
	CHANNELS 6 Xposition Yposition Zposition Xrotation Zrotation Yrotation
	JOINT abdomen
	{
		OFFSET 0.000000 3.402643 0.000000 
		CHANNELS 3 Xrotation Zrotation Yrotation
		JOINT chest
		{
			OFFSET 0.000000 8.438565 -0.680529 
			CHANNELS 3 Xrotation Zrotation Yrotation
			JOINT neck
			{
				OFFSET 0.000000 10.207942 -0.272212 
				CHANNELS 3 Xrotation Zrotation Yrotation
				JOINT head
				{
					OFFSET 0.000000 3.130431 0.000000 
					CHANNELS 3 Xrotation Zrotation Yrotation
					End Site
					{
						OFFSET 0.000000 3.130435 0.000000 
					}
				}
			}
			JOINT lCollar
			{
				OFFSET 3.470700 6.669187 -0.816635 
				CHANNELS 3 Yrotation Zrotation Xrotation
				JOINT lShldr
				{
					OFFSET 3.198488 0.000000 0.000000 
					CHANNELS 3 Zrotation Yrotation Xrotation
					JOINT lForeArm
					{
						OFFSET 10.139888 0.000000 0.000000 
						CHANNELS 3 Yrotation Zrotation Xrotation
						JOINT lHand
						{
							OFFSET 8.370511 0.000000 0.000000 
							CHANNELS 3 Zrotation Yrotation Xrotation
							End Site
							{
								OFFSET 4.083176 0.000000 0.000000 
							}
						}
					}
				}
			}
			JOINT rCollar
			{
				OFFSET -3.470700 6.669187 -0.816635 
				CHANNELS 3 Yrotation Zrotation Xrotation
				JOINT rShldr
				{
					OFFSET -3.198488 0.000000 0.000000 
					CHANNELS 3 Zrotation Yrotation Xrotation
					JOINT rForeArm
					{
						OFFSET -10.139888 0.000000 0.000000 
						CHANNELS 3 Yrotation Zrotation Xrotation
						JOINT rHand
						{
							OFFSET -8.370511 0.000000 0.000000 
							CHANNELS 3 Zrotation Yrotation Xrotation
							End Site
							{
								OFFSET -4.083176 0.000000 0.000000 
							}
						}
					}
				}
			}
		}
	}
	JOINT lThigh
	{
		OFFSET 5.308129 -1.633274 1.361059 
		CHANNELS 3 Xrotation Zrotation Yrotation
		JOINT lShin
		{
			OFFSET -2.041588 -20.007561 0.000000 
			CHANNELS 3 Xrotation Zrotation Yrotation
			JOINT lFoot
			{
				OFFSET 0.000000 -19.190928 -1.224953 
				CHANNELS 3 Xrotation Yrotation Zrotation
				End Site
				{
					OFFSET 0.000000 -2.449906 4.627600 
				}
			}
		}
	}
	JOINT rThigh
	{
		OFFSET -5.308129 -1.633274 1.361059 
		CHANNELS 3 Xrotation Zrotation Yrotation
		JOINT rShin
		{
			OFFSET 2.041588 -20.007561 0.000000 
			CHANNELS 3 Xrotation Zrotation Yrotation
			JOINT rFoot
			{
				OFFSET 0.000000 -19.190928 -1.224953 
				CHANNELS 3 Xrotation Yrotation Zrotation
				End Site
				{
					OFFSET 0.000000 -2.449906 4.627600 
				}
			}
		}
	}
}
MOTION
Frames: 18
Frame Time: 0.033333
15.059347 25.812082 29.489798 -17.050779 29.179686 -138.081177 54.589848 0.175781 2.871122 -3.564453 0.986328 -1.943191 -39.482422 -2.685547 -10.068817 2.294922 4.824218 -14.033203 9.228516 16.601564 0.712891 -11.240234 -22.871096 -65.673828 -133.408203 -3.535156 -64.657600 -4.169921 -116.308601 5.001011 6.328125 4.296875 -0.313232 61.132809 -3.847657 -28.017578 60.791019 3.710938 -65.567039 -8.808594 -7.636718 0.760423 -120.255669 46.707375 -27.516281 110.216080 3.082772 -3.853709 -24.111908 8.037921 -3.405039 -116.692345 -26.891832 -2.144939 88.426308 -2.822293 3.215223 0.167351 16.524204 7.013786 
15.262310 25.052067 29.813393 -18.115234 29.882813 -138.862320 55.302738 0.097656 2.490250 -4.277344 0.117188 -2.314453 -37.207031 -1.953125 -10.556642 -0.166016 4.306641 -14.375001 9.355469 16.982420 0.758867 -14.111327 -24.150391 -64.291100 -134.306641 -3.417969 -63.866608 -1.152344 -116.210945 2.325223 6.845704 4.833984 -0.225432 61.503906 -4.062500 -28.584681 62.871094 3.613281 -67.636719 -8.769531 -6.611328 0.575048 -123.469864 44.442295 -29.436230 112.497643 3.433678 -3.422466 -23.669695 9.717706 -2.560840 -120.310913 -27.577482 -1.311689 89.486664 -2.655980 3.256369 2.257416 17.262199 6.334460 
15.362574 24.616253 30.059412 -18.632813 29.707033 -139.838913 55.517582 0.341797 1.640682 -5.703125 -1.269531 -3.066406 -35.283207 -1.396484 -11.044968 -2.451172 4.306641 -15.068358 7.988280 16.738279 0.869141 -16.904299 -24.667971 -59.755856 -134.599609 -3.505859 -61.083988 -0.302736 -115.664063 1.572266 7.910156 5.527344 -0.430628 61.855469 -3.906250 -27.705744 63.554684 3.544922 -69.003906 -9.453125 -5.722657 0.537109 -124.239487 43.016468 -30.589172 113.904495 3.453175 -3.418298 -23.526791 11.803655 -1.674703 -122.027504 -27.205746 -1.087684 89.662422 -2.646303 3.270563 3.693139 17.452517 6.012523 
15.375014 24.480255 30.216883 -18.291016 29.003906 -140.800781 55.390625 0.634766 0.634766 -7.304687 -2.656250 -3.828578 -34.238281 -0.996094 -11.904465 -4.384766 4.833984 -16.112459 6.503906 16.464844 0.798013 -19.609375 -25.449221 -53.144531 -134.619141 -3.417969 -55.878323 -3.427739 -114.687492 4.560547 8.603516 6.591797 -0.458984 62.285156 -3.300781 -25.186108 63.261719 3.730469 -69.316193 -11.044922 -4.619141 0.615234 -123.350113 42.332947 -31.070564 114.422638 3.628837 -3.529344 -23.331858 13.712696 -1.061115 -121.502480 -26.317869 -1.182931 89.486282 -2.665711 3.256626 4.369967 17.556137 5.738410 
15.308050 24.593569 30.289215 -17.050779 27.773438 -141.421219 54.726563 0.810547 -0.595565 -8.730468 -4.042969 -4.932329 -34.423828 -0.781250 -12.597656 -6.494141 5.361329 -17.508854 5.009766 15.869141 0.788345 -21.025391 -25.078125 -45.883045 -133.925781 -3.505859 -51.317760 -7.763666 -114.218750 8.467656 8.945313 7.656250 -0.489582 63.222656 -2.158203 -21.611326 61.289063 3.535156 -67.940056 -11.357422 -3.066406 0.429688 -120.502640 42.704544 -31.335592 114.606438 3.423678 -3.488926 -23.516466 14.963071 -0.444181 -119.415131 -25.124111 -1.278103 88.784637 -2.460753 3.411559 4.268705 16.777639 5.805225 
15.166195 24.917772 30.234079 -15.126955 26.191406 -142.031250 53.710938 1.210938 -1.943153 -9.794923 -5.429688 -6.025390 -35.322266 -0.390625 -13.281317 -8.251953 5.888671 -19.081026 3.710938 15.283204 0.664063 -21.201172 -24.238279 -39.183697 -133.496094 -3.408203 -48.114655 -12.470704 -113.916016 12.753908 8.925781 8.730469 -0.489763 64.833984 -1.210938 -18.281456 59.355473 3.691406 -68.057266 -11.357421 -3.417969 0.419340 -116.417610 43.749115 -31.039631 114.086006 3.609773 -3.399316 -23.598141 16.350595 0.296947 -115.455841 -23.387926 -1.839240 88.068901 -2.646170 3.542876 3.467331 15.806571 6.007884 
14.958839 25.377007 30.006231 -12.314453 24.433596 -141.958847 52.167969 1.601563 -3.290727 -10.507813 -6.484375 -7.100712 -36.562496 -0.712891 -13.828247 -8.779297 6.591797 -20.478518 2.900391 14.726563 0.583455 -19.716799 -23.505859 -33.632816 -133.847656 -3.378906 -46.991608 -17.910158 -113.691406 17.724609 8.759767 9.248047 -0.538679 66.259766 -0.302734 -15.371144 56.357422 3.662110 -68.310547 -11.425782 -5.468750 0.761719 -111.181808 45.330845 -30.584009 112.663376 3.619182 -3.538395 -23.543205 17.044075 0.749358 -110.523788 -21.786142 -2.263831 87.372047 -2.470688 3.541923 1.886225 14.276932 6.442753 
14.707696 25.921862 29.587986 -9.316406 22.500000 -141.968918 49.892578 1.611328 -4.570038 -10.683594 -7.001954 -7.988281 -38.330078 -1.015625 -14.716797 -7.548829 6.943360 -21.894531 2.539063 14.550782 0.693359 -16.767578 -24.179689 -29.335939 -134.609375 -3.388672 -46.591797 -23.632818 -113.730469 23.203125 8.046876 9.599609 -0.480144 67.636719 0.625000 -11.865128 51.972656 3.652343 -66.347656 -10.214844 -6.191406 0.849609 -105.593529 47.450863 -30.236923 111.274117 3.268512 -3.616864 -23.979507 17.046206 0.815459 -104.990196 -19.853716 -2.488847 87.020256 -2.470172 3.541464 0.000884 12.578122 7.025190 
14.419352 26.520264 28.984831 -6.503906 20.742188 -142.207031 46.562504 1.113281 -5.995904 -10.517579 -7.187500 -8.515624 -40.634766 -1.142578 -15.605470 -5.087891 6.240234 -22.607422 2.714844 14.726563 0.634766 -12.666015 -26.406250 -26.146921 -135.410156 -3.417969 -46.561924 -28.798834 -113.886719 28.125000 7.011719 9.941405 -0.517578 68.750000 0.917969 -8.271485 48.437504 3.632813 -66.182259 -10.458984 -8.095704 1.014250 -99.274582 50.087376 -28.617884 109.161057 3.434390 -3.525832 -24.379087 17.388620 1.305183 -99.939461 -17.577753 -2.919543 87.020210 -2.480433 3.532075 -2.428071 9.805087 7.306948 
14.045135 27.175507 28.209562 -4.228463 18.622831 -142.730972 42.519531 0.058594 -7.412098 -10.166015 -7.187500 -8.848877 -42.402344 -1.289063 -16.142799 -2.451172 5.185547 -23.153412 2.900391 14.726563 0.583455 -7.988280 -29.931641 -23.608387 -135.644531 -3.330078 -45.536545 -36.289066 -114.345703 35.312500 5.791016 9.931641 -0.478516 69.677734 0.478516 -4.345703 45.019531 3.603515 -66.416626 -11.132813 -10.107423 1.511958 -91.451958 52.870262 -26.133408 106.512718 3.259202 -3.677086 -24.169474 17.476604 0.913796 -94.902298 -14.951388 -2.439401 87.196335 -2.470303 3.537018 -4.825488 7.889916 7.547092 
13.543214 27.895393 27.290491 -1.943359 16.347656 -143.561707 38.125000 -1.503906 -8.964844 -9.814453 -7.187500 -9.189452 -43.818359 -1.621094 -16.513948 0.361328 4.482418 -23.163321 2.900391 14.726563 0.583455 -2.919922 -34.785156 -22.572308 -135.126953 -3.398438 -44.218170 -45.556648 -115.439461 44.208981 5.107422 10.263672 -0.597443 70.205078 -0.537109 -0.263671 41.162109 3.642578 -66.279297 -11.396484 -11.474609 1.667979 -80.829247 55.868782 -20.816229 103.709518 2.927131 -3.683555 -24.326145 17.872513 1.191623 -89.627060 -12.148196 -1.748651 87.195534 -2.490237 3.537845 -7.572053 6.589228 7.623315 
12.897852 28.717251 26.260180 0.166016 13.525390 -145.332031 33.916016 -3.105469 -10.351563 -9.814453 -7.187500 -9.716797 -45.390625 -2.167969 -16.191408 2.822266 4.472656 -22.646486 3.222656 14.394531 0.690932 3.281250 -40.517578 -24.599611 -133.623047 -3.369141 -44.228516 -53.671867 -117.626953 51.837051 5.117188 10.439453 -0.617004 69.570313 -1.562500 4.921875 37.822266 3.759766 -65.742188 -11.865234 -13.984375 2.392578 -66.421524 58.591515 -12.534309 100.376343 2.781054 -3.581840 -24.319450 18.532391 1.629274 -83.741608 -9.325677 -0.472809 87.020615 -2.470705 3.531414 -9.621516 5.493486 8.039472 
12.136006 29.677794 25.137049 2.460938 10.722657 -147.656250 29.707029 -4.160156 -11.767578 -9.990234 -7.187500 -10.255127 -46.943356 -2.939453 -15.000501 4.931641 5.175782 -21.600679 3.945313 14.042968 0.544505 9.531250 -45.878906 -30.527346 -131.728516 -3.447266 -48.671875 -56.523445 -120.195320 54.218754 5.791016 10.273438 -0.517578 68.496094 -3.173828 12.880319 35.380859 3.671875 -64.433594 -13.105469 -14.892579 2.861328 -48.505371 60.077198 -0.974617 95.647095 2.420428 -3.660042 -23.833635 19.857584 2.190354 -77.591957 -6.161586 1.038071 86.331100 -2.314090 3.316027 -11.528708 4.942709 7.891881 
11.316709 30.784702 23.973541 4.570313 7.910156 -150.623642 25.302736 -4.765625 -12.852374 -10.693359 -7.177734 -10.976563 -48.496094 -3.027344 -13.427735 6.689453 6.054687 -19.853516 4.951172 13.906250 0.644531 13.886718 -50.302731 -38.974609 -129.316406 -3.574219 -59.218750 -50.468758 -119.970703 47.998047 6.318359 9.570313 -0.527329 67.968750 -5.302734 17.812498 34.316402 3.691406 -63.056641 -13.955079 -15.664063 3.193360 -28.476597 58.808189 12.645082 90.195076 1.736758 -3.800931 -23.458363 21.952671 2.680435 -70.895103 -3.359281 2.700892 84.897926 -2.646160 3.660141 -12.706330 4.236755 7.845838 
10.516320 32.037006 22.824308 6.152343 5.791016 -153.984375 20.898438 -4.785157 -13.408202 -11.738282 -6.992188 -11.542969 -49.882813 -2.939453 -11.846203 7.919922 6.933594 -18.094522 5.634766 14.111328 0.625000 12.656250 -52.998051 -41.121078 -125.654297 -3.535156 -63.612675 -40.078125 -116.943359 38.203121 6.484375 8.173828 -0.400391 68.017578 -8.769532 18.113747 34.814453 3.691406 -62.100239 -13.330078 -16.757813 3.229606 -11.866359 54.685047 23.434881 83.862282 1.717693 -4.081071 -23.062683 25.080645 4.048243 -64.378731 -0.576957 5.331650 82.605751 -2.274040 3.926354 -14.087466 3.661551 8.028922 
9.782284 33.396400 21.768503 7.021484 4.570313 -156.796097 16.484373 -4.013672 -13.545077 -12.783204 -6.630859 -11.748048 -51.201172 -2.324219 -16.553129 9.492188 5.878907 -10.194313 5.810547 14.287110 0.554231 7.841796 -54.257809 -37.138672 -119.892578 -3.388672 -56.884762 -36.289066 -114.345703 35.312500 6.152344 6.757813 -0.390625 67.500000 -12.890625 17.439230 36.503906 3.769531 -62.597652 -10.732422 -18.056641 2.744141 0.257225 49.114048 30.284170 76.684998 1.045086 -3.791540 -22.716349 27.681370 5.032831 -58.598618 1.190576 7.419528 79.466812 -2.097520 3.636440 -14.874016 4.045324 8.272646 
9.164972 34.818371 20.853947 7.373046 4.218750 -159.267578 12.226563 -2.734375 -13.535621 -13.994141 -5.566407 -11.796875 -52.041016 -1.894531 -14.765945 9.667969 5.878906 -8.612281 5.947266 14.482422 0.712891 3.984375 -55.283203 -34.861546 -111.201180 -3.183594 -39.902348 -53.173824 -117.587898 51.329235 5.449219 5.517578 -0.372033 66.142578 -16.757813 17.656248 38.193359 3.710938 -63.261719 -10.439453 -18.945311 2.763672 7.934626 43.472725 33.217018 69.336655 0.714362 -3.528517 -20.977861 30.531290 4.925766 -53.930176 2.264267 8.672328 75.421944 -1.891846 3.817649 -15.520220 4.294315 8.450885 
8.671956 36.283886 20.126253 7.021485 4.746094 -161.376144 7.812500 -1.162109 -13.261917 -14.863280 -4.150391 -11.992894 -53.242184 -0.751953 -13.125129 9.667968 5.000000 -6.855469 6.250000 15.556642 0.661444 3.740235 -56.035160 -38.426067 -105.029297 -2.978516 -33.515121 -65.410156 -123.544930 63.048500 4.580078 5.166016 -0.429688 63.505863 -19.101561 19.928446 38.300781 3.603516 -61.894531 -9.453125 -19.384768 2.431641 12.918400 38.612911 34.446381 61.943211 0.393282 -3.379333 -17.723213 32.668865 3.742110 -49.536812 3.153227 9.344359 70.321014 -1.587643 3.330144 -15.444428 5.308051 8.609768 
